<?xml version="1.0" encoding="UTF-8"?>
<svg id="Lager_2" data-name="Lager 2" xmlns="http://www.w3.org/2000/svg" viewBox="0 0 210.55 124.9">
  <defs>
    <style>
      .cls-1 {
        fill: #7f0044;
      }
    </style>
  </defs>
  <g id="Lager_1-2" data-name="Lager 1">
    <path class="cls-1" d="M87.09,49.44c-5.48-4.2-8.23-10.49-8.23-18.89,0-7.09,2.74-13.06,8.23-17.91,5.48-4.85,12.03-7.28,19.66-7.28s14.17,2.43,19.66,7.28c5.48,4.85,8.22,10.82,8.22,17.91,0,16.79-9.3,25.19-27.88,25.19-7.62,0-14.18-2.1-19.66-6.29ZM110.65,34.47c1.11-1.12,1.67-2.42,1.67-3.92s-.56-2.8-1.67-3.92c-1.12-1.12-2.42-1.68-3.9-1.68s-2.79.56-3.9,1.68c-1.12,1.12-1.67,2.43-1.67,3.92s.56,2.8,1.67,3.92c1.11,1.12,2.41,1.68,3.9,1.68s2.79-.56,3.9-1.68Z"/>
    <path class="cls-1" d="M130.37,63.94v36.95c0,11.31-13.94,20.03-25.76,19.47-7.04-.33-13.1-2.44-18.16-7.33-5.07-4.89-7.6-10.9-7.6-18.06v-25.39l20.61-5.64v31.03c0,1.51.51,2.82,1.55,3.95,1.03,1.13,2.23,1.69,3.61,1.69s2.58-.56,3.61-1.69c1.03-1.13,1.55-2.44,1.55-3.95v-25.39l20.6-5.64Z"/>
    <path class="cls-1" d="M41.36,7.39v49.15c-2.21-.38-4.51-.58-6.89-.58s-4.6-.12-6.89-.35V10.55L0,17.45v107.45l27.57-6.89v-31.02c0-1.84.69-3.44,2.07-4.83,1.38-1.38,2.98-2.07,4.83-2.07s3.45.69,4.83,2.07c1.37,1.38,2.06,2.98,2.07,4.81v27.88h0s0,10.05,0,10.05l27.57-6.89V.5l-27.57,6.89Z"/>
    <path class="cls-1" d="M200.38,70.22c-5.43-4.78-11.71-7.62-18.83-8.57,7.12-.96,13.4-3.79,18.83-8.57,6.77-5.98,10.17-13.33,10.17-22.06,0-10.34-3.39-18.1-10.17-23.27-6.78-5.17-14.88-7.75-24.3-7.75-21.6,0-33.05,9.14-34.34,27.43h-.13v64.85c0,20.68,11.49,31.02,34.47,31.02,9.42,0,17.52-2.59,24.3-7.75,6.77-5.17,10.17-12.93,10.17-23.27,0-8.73-3.39-16.08-10.17-22.06ZM176.08,24.96c3.09,0,5.6,2.51,5.6,5.6s-2.51,5.6-5.6,5.6-5.6-2.51-5.6-5.6,2.51-5.6,5.6-5.6ZM176.08,97.76c-3.09,0-5.6-2.51-5.6-5.6s2.51-5.6,5.6-5.6,5.6,2.51,5.6,5.6-2.51,5.6-5.6,5.6Z"/>
  </g>
</svg>