<svg width="64" height="5" viewBox="0 0 64 5" fill="none" xmlns="http://www.w3.org/2000/svg">
<g clip-path="url(#clip0_431_1236)">
<path d="M63.5692 4.99366C63.5274 4.99366 63.4868 4.99239 63.4462 4.99113V4.99493C61.7785 4.91697 60.9052 3.78121 60.1317 2.77475C59.3532 1.76195 58.6812 0.886677 57.3095 0.886677C55.9379 0.886677 55.2658 1.76195 54.4874 2.77475C53.6862 3.81734 52.7779 4.99937 50.9895 4.99937C49.2012 4.99937 48.2929 3.81734 47.4917 2.77475C46.7132 1.76195 46.0412 0.886677 44.6695 0.886677C43.2978 0.886677 42.6258 1.76131 41.8474 2.77475C41.0462 3.81734 40.1378 4.99937 38.3495 4.99937C36.5612 4.99937 35.6529 3.81734 34.8517 2.77475C34.0732 1.76195 33.4012 0.886677 32.0295 0.886677C30.6578 0.886677 29.9858 1.76195 29.2074 2.77475C28.4062 3.81734 27.4978 4.99937 25.7095 4.99937C23.9212 4.99937 23.0129 3.81734 22.2117 2.77475C21.4332 1.76195 20.7612 0.886677 19.3895 0.886677C18.0178 0.886677 17.3458 1.76195 16.5674 2.77475C15.7668 3.81797 14.8591 5 13.0708 5C11.2825 5 10.3742 3.81797 9.57292 2.77538C8.79446 1.76258 8.12246 0.887311 6.75077 0.887311C5.37908 0.887311 4.70708 1.76258 3.92862 2.77538C3.12738 3.81797 2.21908 5 0.430769 5C0.192615 5 0 4.80162 0 4.55634C0 4.31107 0.192615 4.11269 0.430769 4.11269C1.80246 4.11269 2.47446 3.23742 3.25292 2.22462C4.05415 1.18203 4.96246 -1.98394e-07 6.75077 -1.98394e-07C8.53908 -1.98394e-07 9.44738 1.18203 10.2486 2.22462C11.0271 3.23742 11.6991 4.11269 13.0708 4.11269C14.4425 4.11269 15.1145 3.23742 15.8929 2.22462C16.6942 1.18203 17.6025 -1.98394e-07 19.3908 -1.98394e-07C21.1791 -1.98394e-07 22.0874 1.18203 22.8886 2.22462C23.6671 3.23742 24.3391 4.11269 25.7108 4.11269C27.0825 4.11269 27.7545 3.23742 28.5329 2.22462C29.3342 1.18203 30.2425 -1.98394e-07 32.0308 -1.98394e-07C33.8191 -1.98394e-07 34.7274 1.18203 35.5286 2.22462C36.3071 3.23742 36.9791 4.11269 38.3508 4.11269C39.7225 4.11269 40.3945 3.23742 41.1729 2.22462C41.9742 1.18203 42.8825 -1.98394e-07 44.6708 -1.98394e-07C46.4591 -1.98394e-07 47.3674 1.18203 48.1686 2.22462C48.9471 3.23742 49.6191 4.11269 50.9908 4.11269C52.3625 4.11269 53.0345 3.23742 53.8129 2.22462C54.6142 1.18203 55.5225 -1.98394e-07 57.3108 -1.98394e-07C59.0991 -1.98394e-07 60.0074 1.18203 60.8086 2.22462C61.5212 3.15186 62.1452 3.96248 63.2978 4.09304C63.3858 4.10128 63.4763 4.10635 63.5705 4.10635C63.8086 4.10635 64.0012 4.30473 64.0012 4.55001C64.0012 4.79528 63.8086 4.99366 63.5705 4.99366H63.5692Z" fill="#B386FF"/>
</g>
<defs>
<clipPath id="clip0_431_1236">
<rect width="64" height="5" fill="white" transform="matrix(1 0 0 -1 0 5)"/>
</clipPath>
</defs>
</svg>
