<?xml version="1.0" encoding="UTF-8"?>
<svg id="Lager_2" data-name="Lager 2" xmlns="http://www.w3.org/2000/svg" viewBox="0 0 122.8 103.01">
  <defs>
    <style>
      .cls-1 {
        fill: #b386ff;
      }

      .cls-2 {
        fill: #ffcc5f;
      }
    </style>
  </defs>
  <g id="Lager_1-2" data-name="Lager 1">
    <g>
      <g>
        <path class="cls-2" d="M11.07,42.6H2.09c-1.39,0-2.09-.7-2.09-2.09V2.96C0,1.56.7.87,2.09.87h8.98c1.39,0,2.09.7,2.09,2.09v12.58h9.68V2.96c0-1.39.7-2.09,2.09-2.09h8.98c1.39,0,2.09.7,2.09,2.09v37.55c0,1.39-.7,2.09-2.09,2.09h-8.98c-1.39,0-2.09-.7-2.09-2.09v-12.87h-9.68v12.87c0,1.39-.7,2.09-2.09,2.09Z"/>
        <path class="cls-2" d="M79.34,31.64c0,1.78-.26,3.39-.78,4.84-.52,1.45-1.44,2.69-2.75,3.74-1.31,1.04-3.14,1.85-5.48,2.4s-5.32.84-8.95.84-6.62-.28-8.95-.84c-2.34-.56-4.16-1.36-5.48-2.4-1.31-1.04-2.24-2.29-2.78-3.74-.54-1.45-.81-3.06-.81-4.84V11.88c0-1.78.27-3.39.81-4.84.54-1.45,1.47-2.69,2.78-3.74,1.31-1.04,3.14-1.85,5.48-2.43,2.34-.58,5.32-.87,8.95-.87s6.62.29,8.95.87c2.34.58,4.16,1.39,5.48,2.43,1.31,1.04,2.23,2.29,2.75,3.74.52,1.45.78,3.06.78,4.84v19.76ZM56.5,29.56c0,.77.29,1.42.87,1.94.58.52,1.91.78,4,.78s3.47-.26,4.03-.78c.56-.52.84-1.17.84-1.94v-15.59c0-.77-.28-1.41-.84-1.91-.56-.5-1.9-.75-4.03-.75s-3.42.25-4,.75c-.58.5-.87,1.14-.87,1.91v15.59Z"/>
        <path class="cls-2" d="M111.04,42.6h-22.25c-1.39,0-2.09-.7-2.09-2.09V2.96c0-1.39.7-2.09,2.09-2.09h18.49c3.79,0,6.59.72,8.4,2.14,1.82,1.43,2.72,3.67,2.72,6.72v2.78c0,3.21-1.14,5.29-3.42,6.26,2.51.23,4.36,1.07,5.54,2.52,1.18,1.45,1.77,3.6,1.77,6.46v5.33c0,3.25-.91,5.64-2.72,7.19-1.82,1.55-4.66,2.32-8.52,2.32ZM99.74,10.72v6.26h4.93c1.47,0,2.2-.77,2.2-2.32v-1.62c0-1.54-.73-2.32-2.2-2.32h-4.93ZM99.74,25.91v6.84h7.53c1.47,0,2.2-.77,2.2-2.32v-2.26c0-1.51-.73-2.26-2.2-2.26h-7.53Z"/>
      </g>
      <g>
        <path class="cls-1" d="M11.07,102.14H2.09c-1.39,0-2.09-.7-2.09-2.09v-37.55c0-1.39.7-2.09,2.09-2.09h8.98c1.39,0,2.09.7,2.09,2.09v12.58h9.68v-12.58c0-1.39.7-2.09,2.09-2.09h8.98c1.39,0,2.09.7,2.09,2.09v37.55c0,1.39-.7,2.09-2.09,2.09h-8.98c-1.39,0-2.09-.7-2.09-2.09v-12.87h-9.68v12.87c0,1.39-.7,2.09-2.09,2.09Z"/>
        <path class="cls-1" d="M79.51,91.19c0,1.78-.26,3.39-.78,4.84-.52,1.45-1.45,2.69-2.78,3.74-1.33,1.04-3.16,1.85-5.48,2.4s-5.27.84-8.87.84-6.55-.28-8.87-.84-4.14-1.36-5.48-2.4c-1.33-1.04-2.26-2.29-2.78-3.74s-.78-3.06-.78-4.84v-28.69c0-1.39.7-2.09,2.09-2.09h9.1c1.39,0,2.09.7,2.09,2.09v26.43c0,.77.29,1.42.87,1.94.58.52,1.87.78,3.88.78s3.36-.26,3.94-.78c.58-.52.87-1.17.87-1.94v-26.43c0-1.39.7-2.09,2.09-2.09h8.81c1.39,0,2.09.7,2.09,2.09v28.69Z"/>
        <path class="cls-1" d="M111.56,102.14h-22.25c-1.39,0-2.09-.7-2.09-2.09v-37.55c0-1.39.7-2.09,2.09-2.09h18.49c3.79,0,6.59.72,8.4,2.14,1.82,1.43,2.72,3.67,2.72,6.72v2.78c0,3.21-1.14,5.29-3.42,6.26,2.51.23,4.36,1.07,5.54,2.52,1.18,1.45,1.77,3.6,1.77,6.46v5.33c0,3.25-.91,5.64-2.72,7.19-1.82,1.55-4.66,2.32-8.52,2.32ZM100.26,70.27v6.26h4.93c1.47,0,2.2-.77,2.2-2.32v-1.62c0-1.54-.73-2.32-2.2-2.32h-4.93ZM100.26,85.45v6.84h7.53c1.47,0,2.2-.77,2.2-2.32v-2.26c0-1.51-.73-2.26-2.2-2.26h-7.53Z"/>
      </g>
    </g>
  </g>
</svg>